PathFileType	4	(X/Y/Z)	C:\Github\FootballMatch-and-Movement-Analysis\output\test Exam_2026-03-06_135002_tvc2_Sports2D\test Exam_2026-03-06_135002_tvc2_Sports2D_m_person00.trc
DataRate	CameraRate	NumFrames	NumMarkers	Units	OrigDataRate	OrigDataStartFrame	OrigNumFrames
30.0	30.0	10	22	m	30.0	322	516
Frame#	Time	Hip			RHip			RKnee			RAnkle			RBigToe			RSmallToe			RHeel			LHip			LKnee			LAnkle			LBigToe			LSmallToe			LHeel			Neck			Head			Nose			RShoulder			RElbow			RWrist			LShoulder			LElbow			LWrist			
		X1	Y1	Z1	X2	Y2	Z2	X3	Y3	Z3	X4	Y4	Z4	X5	Y5	Z5	X6	Y6	Z6	X7	Y7	Z7	X8	Y8	Z8	X9	Y9	Z9	X10	Y10	Z10	X11	Y11	Z11	X12	Y12	Z12	X13	Y13	Z13	X14	Y14	Z14	X15	Y15	Z15	X16	Y16	Z16	X17	Y17	Z17	X18	Y18	Z18	X19	Y19	Z19	X20	Y20	Z20	X21	Y21	Z21	X22	Y22	Z22
322	10.754174757281554	0.7541197851944058	0.9053410520095914	0.0301	0.6660538997576623	0.8696937619775171	0.0301	0.6910485050402072	0.5045221087095588	0.129	0.713118435708822	0.15672140420291297	0.023	0.7000952214017603	0.036166297374849235	0.2179	0.6562717460365829	0.03885904080913743	0.1804	0.740059805215195	0.104565203925967	-0.0119	0.852651790670611	0.9140094182481743	0.0301	0.8641761909391137	0.652451342145279	0.129	0.9073707066785517	0.25003454159243677	0.023	0.9241283104064761	0.18403789712491503	0.2179	0.9803908926168614	0.17631065170929053	0.1804	0.8988511440984533	0.16815182288184174	-0.0119	0.6736441836238276	1.452147770152408	0.0008	0.632437918341044	1.6923609688700771	0.0655	0.6431553991789934	1.5540872044460365	0.1076	0.5172847514544388	1.3256740869667831	-0.01275	0.39688993808142414	1.1267415737881297	0.0702	0.5420882862470165	0.9990080065650154	0.1076	0.8625161701385186	1.3825055897804683	-0.01275	1.0552906599818208	1.2385234878359823	0.0702	0.9810412457754831	1.061600376807569	0.1076
323	10.78757281553398	0.7543046193102343	0.9074890790015898	0.0301	0.666575799245752	0.8783154283654273	0.0301	0.6933155711902093	0.5120516705020057	0.129	0.713599763513822	0.15663618407258065	0.023	0.700490359748176	0.0380216062056226	0.2179	0.6566864704008668	0.04120174690036478	0.1804	0.7414495441012091	0.10374395713896008	-0.0119	0.8530753211647801	0.9208944609903932	0.0301	0.8623151835368833	0.6431073181359866	0.129	0.9036335316652238	0.2357824845373692	0.023	0.9223633333239831	0.16210185989744638	0.2179	0.9801014145733234	0.16017127233081502	0.1804	0.8972658569039628	0.15666253647718933	-0.0119	0.6771941509612418	1.4620150271001113	0.0008	0.636050542244336	1.7007462246336431	0.0655	0.6492214160717226	1.5611370999538308	0.1076	0.5217072898492052	1.3357649614583174	-0.01275	0.3992259148824139	1.1374072468433125	0.0702	0.5404271742068016	1.0045291893373969	0.1076	0.8652299581469862	1.3902445978708737	-0.01275	1.058245159187122	1.2450567770769894	0.0702	0.9845533742489978	1.0639677393890592	0.1076
324	10.820970873786408	0.7538050588913532	0.9077796031401275	0.0301	0.6659223500251862	0.8843187033724895	0.0301	0.692398685349374	0.5160201150490946	0.129	0.713282939158594	0.15339252525248837	0.023	0.6962551662804616	0.03904163936038011	0.2179	0.6547595453513483	0.040892031065130646	0.1804	0.7426559926931382	0.09867712533709876	-0.0119	0.8530222175475195	0.9250899900308788	0.0301	0.8611047696110282	0.6332458938288463	0.129	0.9009945784702756	0.22074449920488534	0.023	0.9223295406747442	0.13872096869904152	0.2179	0.9797342083204479	0.14113581784378174	0.1804	0.8950872726658763	0.1448568324919303	-0.0119	0.6819520332969599	1.4694492955945708	0.0008	0.641247055154671	1.7062359665603664	0.0655	0.6548607086216173	1.5663131165572879	0.1076	0.5280158426488725	1.3440085281338854	-0.01275	0.399830610247189	1.1467510542507804	0.0702	0.5371819451168608	1.0089901617374508	0.1076	0.86825605719038	1.3949290206153515	-0.01275	1.0617944404213573	1.2466170630210998	0.0702	0.9857891654092582	1.0612875749607809	0.1076
325	10.854368932038835	0.7517279033577438	0.9060414407689756	0.0301	0.6638554755471239	0.8813541429912382	0.0301	0.690345659035155	0.5137234957110682	0.129	0.7129128844539755	0.1486792388294903	0.023	0.6935339671884846	0.03948996983405045	0.2179	0.653927929246396	0.04032965349297501	0.1804	0.7438441719683978	0.09335167457358708	-0.0119	0.851937521733377	0.9211190078089075	0.0301	0.860140048570914	0.6230946020354147	0.129	0.9001004092092302	0.2016942092286406	0.023	0.9240029408861127	0.11286548594463253	0.2179	0.9796425763607427	0.11875589748058558	0.1804	0.8915905769190738	0.12870496562182704	-0.0119	0.6864864986393815	1.4712417648930067	0.0008	0.6488399721485115	1.7067538955986052	0.0655	0.6599158303268183	1.5691857710726296	0.1076	0.5338713313393025	1.3489689910079745	-0.01275	0.4001914185548638	1.150765223095011	0.0702	0.5351632054611695	1.0128522084960836	0.1076	0.8707029411659707	1.39593366709662	-0.01275	1.0644959331265738	1.2446604571416449	0.0702	0.9867486678687012	1.0548826975456127	0.1076
326	10.887766990291261	0.7490543674418741	0.9032626675218479	0.0301	0.6618973152573926	0.8735109581601648	0.0301	0.6888110424149946	0.5078391289566411	0.129	0.7126060343614348	0.14530159757504438	0.023	0.6932371468942763	0.03908411646978123	0.2179	0.6531738239707926	0.04052067744915543	0.1804	0.7445644377944541	0.08939735295299314	-0.0119	0.8497381552669205	0.9105513772745994	0.0301	0.8586537798918155	0.6089602540710516	0.129	0.8995330666579933	0.18087512152893193	0.023	0.9239662130412568	0.08668264635481628	0.2179	0.9781259536539086	0.09509495561353462	0.1804	0.8867410377843075	0.10954577414515505	-0.0119	0.6901912820718247	1.4689272570437326	0.0008	0.6578023263118336	1.704158856375725	0.0655	0.6664987911091573	1.5694787624277426	0.1076	0.5382548242816825	1.3514465870258234	-0.01275	0.4019654310969307	1.1537650235239405	0.0702	0.5345269012549909	1.016708749690414	0.1076	0.8734197943497056	1.3936060241717947	-0.01275	1.067098136931117	1.2409390083903782	0.0702	0.9884371540872993	1.0483589179481485	0.1076
327	10.92116504854369	0.7473014503091243	0.901565826610052	0.0301	0.6606218715216177	0.8699084799289156	0.0301	0.687868509819137	0.5044837932106914	0.129	0.7120113892430815	0.14514202042953225	0.023	0.6934535636529701	0.038092174723193706	0.2179	0.6499981221728459	0.04127324627981829	0.1804	0.7430674422578498	0.08799430665587903	-0.0119	0.8475628326702163	0.9017063000222079	0.0301	0.8560312901820196	0.5936190075557194	0.129	0.8969779348581294	0.16581234317540197	0.023	0.918269017545629	0.06648743879721006	0.2179	0.9717009369525784	0.07601018338748873	0.1804	0.8815139078008791	0.09481482877362789	-0.0119	0.6939460301627122	1.4664348524818651	0.0008	0.6668138905275461	1.7017400112972862	0.0655	0.6750450840691742	1.5679570252204842	0.1076	0.541583617464729	1.3535501786362982	-0.01275	0.4049908334665247	1.159429543843265	0.0702	0.5341220434987022	1.0194502237356162	0.1076	0.8776170918764644	1.3891299712905514	-0.01275	1.071559945331228	1.2361388794247856	0.0702	0.9897493403990525	1.0433522427889912	0.1076
328	10.954563106796117	0.7467394278497436	0.9010756237859209	0.0301	0.6588640947902722	0.8704065086150452	0.0301	0.686812681869182	0.5046327345121961	0.129	0.7107942499137295	0.14618447216850386	0.023	0.6930261041729328	0.03663399516841076	0.2179	0.6459693978156024	0.04168246638283785	0.1804	0.7394839842212771	0.08936558587632847	-0.0119	0.8463104958562132	0.8982524385021056	0.0301	0.8527601343036129	0.585662908887555	0.129	0.8913550959041837	0.15860603283006378	0.023	0.9061969527890639	0.05431451530256255	0.2179	0.9588716116157817	0.06357575210369457	0.1804	0.8760256251590435	0.0886500652715677	-0.0119	0.6984708984291904	1.4648641126617186	0.0008	0.6753099465206365	1.7002912436886077	0.0655	0.6831675606940568	1.5663036033156648	0.1076	0.543856975824794	1.3558524418039382	-0.01275	0.4072664799555602	1.1645226717430306	0.0702	0.5339150137355848	1.019605505894229	0.1076	0.8819304620561835	1.3841792428559114	-0.01275	1.0765911405864788	1.2308874925941324	0.0702	0.9888128022026651	1.0387724424538023	0.1076
329	10.987961165048544	0.7464826514080866	0.8989605095737582	0.0301	0.6561316600349554	0.8679299874980109	0.0301	0.6853729410080146	0.5028844546283094	0.129	0.7090930753166438	0.1438427902960573	0.023	0.6912954513971807	0.03399015927695796	0.2179	0.644078508894289	0.04005970232217545	0.1804	0.7368113075146926	0.09008306012258122	-0.0119	0.8458532574379712	0.8961173892532052	0.0301	0.8502735932880116	0.5857490691896469	0.129	0.8839406623173813	0.15423331720197575	0.023	0.8913722301838027	0.04717750163101636	0.2179	0.943057489326519	0.05464139043980797	0.1804	0.8700228625925127	0.08762550970081644	-0.0119	0.7028976898447381	1.4627966899480556	0.0008	0.6827426635116943	1.699070779573235	0.0655	0.687905962758883	1.5654882111685806	0.1076	0.5447482972599232	1.3569743071661342	-0.01275	0.4075603765508967	1.16571751590385	0.0702	0.5339019825697565	1.0179669112471748	0.1076	0.8843359735584087	1.3799888127991051	-0.01275	1.0789471658074345	1.22622113128845	0.0702	0.9847201366221823	1.0340792278296225	0.1076
330	11.021359223300971	0.7460852114716185	0.8944238231009101	0.0301	0.6534402443912184	0.8627682295357524	0.0301	0.6832395752743882	0.49664145338759724	0.129	0.7075071560137032	0.13922371301366943	0.023	0.6896470563627793	0.031059413552447568	0.2179	0.6439593729611741	0.03661129308771665	0.1804	0.7366483955211872	0.0890204713995611	-0.0119	0.845923244279791	0.8932030525087234	0.0301	0.8493582279062178	0.5860036386243455	0.129	0.8768887174511651	0.1488009071602959	0.023	0.8776213180551826	0.04248516256266141	0.2179	0.9285278570546862	0.04536915112947734	0.1804	0.8646816539631259	0.08616659056962903	-0.0119	0.7055742928795016	1.4596819797479283	0.0008	0.6879024759345316	1.697885461948656	0.0655	0.6883619757698849	1.565630953092287	0.1076	0.5446489953705588	1.3558297114201117	-0.01275	0.40649084048746764	1.164279805390381	0.0702	0.5337317683026757	1.0164282443987736	0.1076	0.8852567183949069	1.3768872979805868	-0.01275	1.0784216968108875	1.2228199394056685	0.0702	0.9793766383595304	1.030797743878664	0.1076
331	11.054757281553398	0.7457283869393432	0.8899076740882748	0.0301	0.651632059023472	0.8610253501877349	0.0301	0.6799181023331493	0.48961362996436747	0.129	0.7064526153373404	0.13867545998770195	0.023	0.6896146593331937	0.03014630126259773	0.2179	0.6435250035802988	0.03423634795351828	0.1804	0.7373558403275386	0.09013554499167113	-0.0119	0.8464461497141146	0.8918031190768616	0.0301	0.8495008041895548	0.582548561607062	0.129	0.871112624932661	0.14339594566682384	0.023	0.8667988870667782	0.0389599234909872	0.2179	0.9174517552056133	0.0351927989975382	0.1804	0.8610157194727748	0.0834971011807138	-0.0119	0.7058276077215455	1.456362696101015	0.0008	0.6893557423131642	1.6969596897112473	0.0655	0.6861463979862764	1.5666356491900968	0.1076	0.5444270455238627	1.3531234692109628	-0.01275	0.40538453982150685	1.1622627209302374	0.0702	0.5335131270638415	1.0156274235607161	0.1076	0.8855823152285861	1.375011310959273	-0.01275	1.0769168670698792	1.2210615929621504	0.0702	0.9759823793125123	1.0299556379480017	0.1076
